<?xml version="1.0" encoding="UTF-8" standalone="no"?>
<!-- Created with Inkscape (http://www.inkscape.org/) -->

<svg
   xmlns:dc="http://purl.org/dc/elements/1.1/"
   xmlns:cc="http://creativecommons.org/ns#"
   xmlns:rdf="http://www.w3.org/1999/02/22-rdf-syntax-ns#"
   xmlns:svg="http://www.w3.org/2000/svg"
   xmlns="http://www.w3.org/2000/svg"
   xmlns:sodipodi="http://sodipodi.sourceforge.net/DTD/sodipodi-0.dtd"
   xmlns:inkscape="http://www.inkscape.org/namespaces/inkscape"
   width="744.09448"
   height="1052.3622"
   id="svg2"
   version="1.1"
   inkscape:version="0.48.4 r9939"
   sodipodi:docname="plates.svg">
  <defs
     id="defs4">
    <clipPath
       id="clipPath3001"
       clipPathUnits="userSpaceOnUse">
      <path
         id="path3003"
         clip-rule="evenodd"
         d="m 1003.8,3501.6 3944.4,0 0,1415.4 -3944.4,0 0,-1415.4 z"
         inkscape:connector-curvature="0" />
    </clipPath>
    <clipPath
       id="clipPath5970"
       clipPathUnits="userSpaceOnUse">
      <path
         id="path5972"
         clip-rule="evenodd"
         d="m 1003.8,3501.6 3944.4,0 0,1415.4 -3944.4,0 0,-1415.4 z" />
    </clipPath>
  </defs>
  <sodipodi:namedview
     id="base"
     pagecolor="#ffffff"
     bordercolor="#666666"
     borderopacity="1.0"
     inkscape:pageopacity="0.0"
     inkscape:pageshadow="2"
     inkscape:zoom="0.63666294"
     inkscape:cx="552.42904"
     inkscape:cy="642.8512"
     inkscape:document-units="mm"
     inkscape:current-layer="layer1"
     showgrid="false"
     units="mm"
     inkscape:snap-bbox="false"
     inkscape:bbox-nodes="false"
     inkscape:snap-bbox-edge-midpoints="false"
     inkscape:snap-bbox-midpoints="false"
     showguides="true"
     inkscape:guide-bbox="true"
     inkscape:window-width="1600"
     inkscape:window-height="850"
     inkscape:window-x="0"
     inkscape:window-y="0"
     inkscape:window-maximized="1"
     inkscape:object-nodes="true"
     inkscape:object-paths="true"
     inkscape:snap-nodes="true" />
  <metadata
     id="metadata7">
    <rdf:RDF>
      <cc:Work
         rdf:about="">
        <dc:format>image/svg+xml</dc:format>
        <dc:type
           rdf:resource="http://purl.org/dc/dcmitype/StillImage" />
        <dc:title></dc:title>
      </cc:Work>
    </rdf:RDF>
  </metadata>
  <g
     inkscape:label="Layer 1"
     inkscape:groupmode="layer"
     id="layer1"
     transform="translate(0,-2.5390623e-6)">
    <path
       sodipodi:type="arc"
       style="fill:none;stroke:none"
       id="path73625-2-5-1"
       sodipodi:cx="447.67856"
       sodipodi:cy="359.32648"
       sodipodi:rx="13.928572"
       sodipodi:ry="15.535714"
       d="m 461.60713,359.32648 a 13.928572,15.535714 0 1 1 -27.85714,0 13.928572,15.535714 0 1 1 27.85714,0 z"
       transform="matrix(0.35996365,0,0,0.32272604,327.42595,378.5173)" />
    <path
       sodipodi:type="arc"
       style="fill:none;stroke:none"
       id="path73625-2-3-1-9"
       sodipodi:cx="447.67856"
       sodipodi:cy="359.32648"
       sodipodi:rx="13.928572"
       sodipodi:ry="15.535714"
       d="m 461.60713,359.32648 a 13.928572,15.535714 0 1 1 -27.85714,0 13.928572,15.535714 0 1 1 27.85714,0 z"
       transform="matrix(0.35996365,0,0,0.32272604,327.42595,225.66729)" />
    <path
       sodipodi:type="arc"
       style="fill:none;stroke:none"
       id="path73625-2-35-8-0"
       sodipodi:cx="447.67856"
       sodipodi:cy="359.32648"
       sodipodi:rx="13.928572"
       sodipodi:ry="15.535714"
       d="m 461.60713,359.32648 a 13.928572,15.535714 0 1 1 -27.85714,0 13.928572,15.535714 0 1 1 27.85714,0 z"
       transform="matrix(0.35996365,0,0,0.32272604,-137.0491,225.66729)" />
    <path
       sodipodi:type="arc"
       style="fill:none;stroke:none"
       id="path73625-2-38-6-5"
       sodipodi:cx="447.67856"
       sodipodi:cy="359.32648"
       sodipodi:rx="13.928572"
       sodipodi:ry="15.535714"
       d="m 461.60713,359.32648 a 13.928572,15.535714 0 1 1 -27.85714,0 13.928572,15.535714 0 1 1 27.85714,0 z"
       transform="matrix(0.35996365,0,0,0.32272604,-137.0491,378.5173)" />
    <path
       sodipodi:type="arc"
       style="fill:none;stroke:none"
       id="path73625-2"
       sodipodi:cx="447.67856"
       sodipodi:cy="359.32648"
       sodipodi:rx="13.928572"
       sodipodi:ry="15.535714"
       d="m 461.60713,359.32648 a 13.928572,15.535714 0 1 1 -27.85714,0 13.928572,15.535714 0 1 1 27.85714,0 z"
       transform="matrix(0.35996365,0,0,0.32272604,327.6759,30.2173)" />
    <path
       sodipodi:type="arc"
       style="fill:none;stroke:none"
       id="path73625-2-38"
       sodipodi:cx="447.67856"
       sodipodi:cy="359.32648"
       sodipodi:rx="13.928572"
       sodipodi:ry="15.535714"
       d="m 461.60713,359.32648 a 13.928572,15.535714 0 1 1 -27.85714,0 13.928572,15.535714 0 1 1 27.85714,0 z"
       transform="matrix(0.35996365,0,0,0.32272604,-136.7991,30.2173)" />
    <path
       style="fill:none;stroke:#000000;stroke-width:1.00025439px;stroke-linecap:butt;stroke-linejoin:miter;stroke-opacity:1"
       d="m 10.598912,157.43132 491.649998,0"
       id="path74880"
       inkscape:connector-curvature="0" />
    <path
       id="path25054-0"
       style="fill:#000000;fill-opacity:1;fill-rule:evenodd;stroke:none"
       d="m 10.598912,157.43131 0,174.15 m 0,-174.15 0,-134.11228 M 254.0864,23.06905 c 0,-1.05542 0.88208,-1.9375 1.93751,-1.93751 1.05542,0 1.93749,0.88209 1.93749,1.93751 m -93.87498,10e-6 c 0,-5.9581 4.97948,-10.93767 10.9375,-10.93769 5.95801,0 10.9375,4.97959 10.9375,10.93767 m 140.12499,2e-5 c 0,-5.95913 4.96241,-10.93954 10.9,-10.93957 5.93758,0 10.89999,4.98044 10.89999,10.93955 m -255.799988,10e-6 c 0,-1.05542 0.88208,-1.9375 1.9375,-1.93751 1.05542,0 1.9375,0.88209 1.9375,1.93751 m 320.049988,0 c 0,-1.05542 0.88209,-1.9375 1.93751,-1.93751 1.05542,0 1.93749,0.88209 1.93749,1.93751 m -327.799988,0 c 0,18.53452 -15.49049,34.02499 -34.02501,34.02499 -18.53452,-1e-5 -34.02501,-15.49048 -34.025,-34.02501 m 140.050028,3e-5 c -1e-5,18.53453 -15.50757,34.025 -34.06252,34.025 -18.55495,0 -34.062498,-15.49048 -34.062498,-34.02501 m 158.125018,10e-6 c 0,18.53453 -15.50756,34.025 -34.06251,34.025 -18.55495,0 -34.0625,-15.49048 -34.0625,-34.02501 m 140.125,10e-6 c 0,18.53453 -15.50755,34.025 -34.06251,34.025 -18.55495,0 -34.06251,-15.49048 -34.0625,-34.02501 m 158.05,0 c 0,18.53453 -15.50755,34.025 -34.06251,34.025 -18.55495,0 -34.0625,-15.49048 -34.0625,-34.02501 m 140.12502,2e-5 c 0,18.53453 -15.50755,34.025 -34.06251,34.025 -18.55495,0 -34.06251,-15.49048 -34.0625,-34.02501 M 10.598912,23.31903 c 0,-3.728003 3.058792,-6.84374 6.71874,-6.84374 3.659937,0 6.71876,3.115737 6.71876,6.84374 M 488.01142,23.06906 c 0,-3.87781 3.24093,-7.11874 7.11874,-7.11874 3.87781,0 7.11875,3.24093 7.11875,7.11874 m -0.24996,308.51225 0,-174.15 m 0.24996,0 0,-134.36228 m -491.649998,482.66228 491.400038,0 m 0,-1e-5 0,-174.14999 m -491.400038,0 0,174.14999" />
    <path
       sodipodi:type="arc"
       style="fill:none;stroke:none"
       id="path73625-2-5"
       sodipodi:cx="447.67856"
       sodipodi:cy="359.32648"
       sodipodi:rx="13.928572"
       sodipodi:ry="15.535714"
       d="m 461.60713,359.32648 a 13.928572,15.535714 0 1 1 -27.85714,0 13.928572,15.535714 0 1 1 27.85714,0 z"
       transform="matrix(0.35996365,0,0,0.32272604,327.42595,204.3673)" />
    <path
       sodipodi:type="arc"
       style="fill:none;stroke:none"
       id="path73625-2-3-1"
       sodipodi:cx="447.67856"
       sodipodi:cy="359.32648"
       sodipodi:rx="13.928572"
       sodipodi:ry="15.535714"
       d="m 461.60713,359.32648 a 13.928572,15.535714 0 1 1 -27.85714,0 13.928572,15.535714 0 1 1 27.85714,0 z"
       transform="matrix(0.35996365,0,0,0.32272604,327.42595,51.517293)" />
    <path
       sodipodi:type="arc"
       style="fill:none;stroke:none"
       id="path73625-2-35-8"
       sodipodi:cx="447.67856"
       sodipodi:cy="359.32648"
       sodipodi:rx="13.928572"
       sodipodi:ry="15.535714"
       d="m 461.60713,359.32648 a 13.928572,15.535714 0 1 1 -27.85714,0 13.928572,15.535714 0 1 1 27.85714,0 z"
       transform="matrix(0.35996365,0,0,0.32272604,-137.04909,51.517293)" />
    <path
       sodipodi:type="arc"
       style="fill:none;stroke:none"
       id="path73625-2-38-6"
       sodipodi:cx="447.67856"
       sodipodi:cy="359.32648"
       sodipodi:rx="13.928572"
       sodipodi:ry="15.535714"
       d="m 461.60713,359.32648 a 13.928572,15.535714 0 1 1 -27.85714,0 13.928572,15.535714 0 1 1 27.85714,0 z"
       transform="matrix(0.35996365,0,0,0.32272604,-137.04909,204.3673)" />
    <path
       style="fill:none;stroke:#000000;stroke-width:1px;stroke-linecap:butt;stroke-linejoin:miter;stroke-opacity:1"
       d="m 10.598912,331.58131 34.19199,-10e-6 0,-13.05802 30.61602,0 0,13.05802 149.309008,0 0,-13.05802 57.61603,0 0,13.05802 219.66699,10e-6"
       id="path74943"
       inkscape:connector-curvature="0" />
    <path
       style="fill:none;stroke:#000000;stroke-width:1px;stroke-linecap:butt;stroke-linejoin:miter;stroke-opacity:1"
       d="m 44.790902,331.58131 30.61602,0"
       id="path74988"
       inkscape:connector-curvature="0" />
    <path
       style="fill:none;stroke:#000000;stroke-width:1px;stroke-linecap:butt;stroke-linejoin:miter;stroke-opacity:1"
       d="m 224.71593,331.58131 57.61603,0"
       id="path74990"
       inkscape:connector-curvature="0" />
  </g>
</svg>
