<?xml version="1.0" encoding="UTF-8" standalone="no"?>
<!-- Created with Inkscape (http://www.inkscape.org/) -->

<svg
   xmlns:dc="http://purl.org/dc/elements/1.1/"
   xmlns:cc="http://creativecommons.org/ns#"
   xmlns:rdf="http://www.w3.org/1999/02/22-rdf-syntax-ns#"
   xmlns:svg="http://www.w3.org/2000/svg"
   xmlns="http://www.w3.org/2000/svg"
   version="1.1"
   width="744.09448"
   height="1052.3622"
   id="svg2">
  <defs
     id="defs4">
    <clipPath
       id="clipPath3001">
      <path
         d="m 1003.8,3501.6 3944.4,0 0,1415.4 -3944.4,0 0,-1415.4 z"
         id="path3003" />
    </clipPath>
    <clipPath
       id="clipPath5970">
      <path
         d="m 1003.8,3501.6 3944.4,0 0,1415.4 -3944.4,0 0,-1415.4 z"
         id="path5972" />
    </clipPath>
  </defs>
  <metadata
     id="metadata7">
    <rdf:RDF>
      <cc:Work
         rdf:about="">
        <dc:format>image/svg+xml</dc:format>
        <dc:type
           rdf:resource="http://purl.org/dc/dcmitype/StillImage" />
        <dc:title></dc:title>
      </cc:Work>
    </rdf:RDF>
  </metadata>
  <g
     transform="translate(0,-2.5390623e-6)"
     id="layer1">
    <path
       d="m 461.60713,359.32648 a 13.928572,15.535714 0 1 1 -27.85714,0 13.928572,15.535714 0 1 1 27.85714,0 z"
       transform="matrix(0.35996365,0,0,0.32272604,327.42595,378.5173)"
       id="path73625-2-5-1"
       style="fill:none;stroke:none" />
    <path
       d="m 461.60713,359.32648 a 13.928572,15.535714 0 1 1 -27.85714,0 13.928572,15.535714 0 1 1 27.85714,0 z"
       transform="matrix(0.35996365,0,0,0.32272604,327.42595,225.66729)"
       id="path73625-2-3-1-9"
       style="fill:none;stroke:none" />
    <path
       d="m 461.60713,359.32648 a 13.928572,15.535714 0 1 1 -27.85714,0 13.928572,15.535714 0 1 1 27.85714,0 z"
       transform="matrix(0.35996365,0,0,0.32272604,-137.0491,225.66729)"
       id="path73625-2-35-8-0"
       style="fill:none;stroke:none" />
    <path
       d="m 461.60713,359.32648 a 13.928572,15.535714 0 1 1 -27.85714,0 13.928572,15.535714 0 1 1 27.85714,0 z"
       transform="matrix(0.35996365,0,0,0.32272604,-137.0491,378.5173)"
       id="path73625-2-38-6-5"
       style="fill:none;stroke:none" />
    <path
       d="m 461.60713,359.32648 a 13.928572,15.535714 0 1 1 -27.85714,0 13.928572,15.535714 0 1 1 27.85714,0 z"
       transform="matrix(0.35996365,0,0,0.32272604,327.6759,30.2173)"
       id="path73625-2"
       style="fill:none;stroke:none" />
    <path
       d="m 461.60713,359.32648 a 13.928572,15.535714 0 1 1 -27.85714,0 13.928572,15.535714 0 1 1 27.85714,0 z"
       transform="matrix(0.35996365,0,0,0.32272604,-136.7991,30.2173)"
       id="path73625-2-38"
       style="fill:none;stroke:none" />
    <path
       d="m 10.598912,157.43132 491.649998,0"
       id="path74880"
       style="fill:none;stroke:none" />
    <path
       d="m 10.598912,157.43131 0,174.15 m 0,-174.15 0,-134.11228 M 254.0864,23.06905 c 0,-1.05542 0.88208,-1.9375 1.93751,-1.93751 1.05542,0 1.93749,0.88209 1.93749,1.93751 m -93.87498,10e-6 c 0,-5.9581 4.97948,-10.93767 10.9375,-10.93769 5.95801,0 10.9375,4.97959 10.9375,10.93767 m 140.12499,2e-5 c 0,-5.95913 4.96241,-10.93954 10.9,-10.93957 5.93758,0 10.89999,4.98044 10.89999,10.93955 m -255.799988,10e-6 c 0,-1.05542 0.88208,-1.9375 1.9375,-1.93751 1.05542,0 1.9375,0.88209 1.9375,1.93751 m 320.049988,0 c 0,-1.05542 0.88209,-1.9375 1.93751,-1.93751 1.05542,0 1.93749,0.88209 1.93749,1.93751 m -327.799988,0 c 0,18.53452 -15.49049,34.02499 -34.02501,34.02499 -18.53452,-1e-5 -34.02501,-15.49048 -34.025,-34.02501 m 140.050028,3e-5 c -1e-5,18.53453 -15.50757,34.025 -34.06252,34.025 -18.55495,0 -34.062498,-15.49048 -34.062498,-34.02501 m 158.125018,10e-6 c 0,18.53453 -15.50756,34.025 -34.06251,34.025 -18.55495,0 -34.0625,-15.49048 -34.0625,-34.02501 m 140.125,10e-6 c 0,18.53453 -15.50755,34.025 -34.06251,34.025 -18.55495,0 -34.06251,-15.49048 -34.0625,-34.02501 m 158.05,0 c 0,18.53453 -15.50755,34.025 -34.06251,34.025 -18.55495,0 -34.0625,-15.49048 -34.0625,-34.02501 m 140.12502,2e-5 c 0,18.53453 -15.50755,34.025 -34.06251,34.025 -18.55495,0 -34.06251,-15.49048 -34.0625,-34.02501 M 10.598912,23.31903 c 0,-3.728003 3.058792,-6.84374 6.71874,-6.84374 3.659937,0 6.71876,3.115737 6.71876,6.84374 M 488.01142,23.06906 c 0,-3.87781 3.24093,-7.11874 7.11874,-7.11874 3.87781,0 7.11875,3.24093 7.11875,7.11874 m -0.24996,308.51225 0,-174.15 m 0.24996,0 0,-134.36228 m -491.649998,482.66228 491.400038,0 m 0,-1e-5 0,-174.14999 m -491.400038,0 0,174.14999"
       id="path25054-0"
       style="fill:none;stroke:none" />
    <path
       d="m 461.60713,359.32648 a 13.928572,15.535714 0 1 1 -27.85714,0 13.928572,15.535714 0 1 1 27.85714,0 z"
       transform="matrix(0.35996365,0,0,0.32272604,327.42595,204.3673)"
       id="path73625-2-5"
       style="fill:none;stroke:none" />
    <path
       d="m 461.60713,359.32648 a 13.928572,15.535714 0 1 1 -27.85714,0 13.928572,15.535714 0 1 1 27.85714,0 z"
       transform="matrix(0.35996365,0,0,0.32272604,327.42595,51.517293)"
       id="path73625-2-3-1"
       style="fill:none;stroke:none" />
    <path
       d="m 461.60713,359.32648 a 13.928572,15.535714 0 1 1 -27.85714,0 13.928572,15.535714 0 1 1 27.85714,0 z"
       transform="matrix(0.35996365,0,0,0.32272604,-137.04909,51.517293)"
       id="path73625-2-35-8"
       style="fill:none;stroke:none" />
    <path
       d="m 461.60713,359.32648 a 13.928572,15.535714 0 1 1 -27.85714,0 13.928572,15.535714 0 1 1 27.85714,0 z"
       transform="matrix(0.35996365,0,0,0.32272604,-137.04909,204.3673)"
       id="path73625-2-38-6"
       style="fill:none;stroke:none" />
    <path
       d="m 10.598912,331.58131 34.19199,-10e-6 0,-13.05802 30.61602,0 0,13.05802 149.309008,0 0,-13.05802 57.61603,0 0,13.05802 219.66699,10e-6"
       id="path74943"
       style="fill:none;stroke:none" />
    <path
       d="m 44.790902,331.58131 30.61602,0"
       id="path74988"
       style="fill:none;stroke:none" />
    <path
       d="m 224.71593,331.58131 57.61603,0"
       id="path74990"
       style="fill:none;stroke:none" />
    <g
       id="text3001"
       style="font-size:40px;font-style:normal;font-weight:normal;line-height:100%;letter-spacing:0px;word-spacing:0px;fill:#ff0000;fill-opacity:1;stroke:none;font-family:Sans">
      <path
         d="m 49.17931,449.29175 -1.699219,0 -0.253906,-7.95899 -0.107422,-3.05664 -0.595703,1.77735 -1.884766,5.07812 -1.201172,0 -1.796875,-4.88281 -0.595703,-1.97266 -0.03906,3.19336 -0.22461,7.82227 -1.640625,0 0.625,-12.76367 2.060547,0 1.71875,4.80468 0.556641,1.6211 0.537109,-1.6211 1.806641,-4.80468 2.11914,0 z"
         id="path3084"
         style="font-size:20px;font-variant:normal;font-stretch:normal;fill:#ff0000;font-family:Consolas;-inkscape-font-specification:Consolas" />
      <path
         d="m 60.136341,442.8269 c -1e-5,1.14584 -0.135101,2.13543 -0.405273,2.96875 -0.270192,0.83334 -0.634775,1.52182 -1.09375,2.06543 -0.458993,0.54362 -0.996102,0.94727 -1.611328,1.21094 -0.615242,0.26367 -1.264655,0.39551 -1.948243,0.39551 -0.820317,0 -1.534834,-0.14811 -2.143554,-0.44434 -0.608727,-0.29622 -1.113284,-0.72428 -1.513672,-1.28418 -0.400392,-0.55989 -0.698243,-1.24186 -0.893555,-2.04589 -0.195313,-0.80404 -0.292969,-1.71061 -0.292969,-2.71973 0,-1.13281 0.133463,-2.11588 0.400391,-2.94922 0.266926,-0.83332 0.629881,-1.5218 1.088867,-2.06543 0.458982,-0.54361 0.994463,-0.94725 1.606445,-1.21094 0.611975,-0.26366 1.259761,-0.39549 1.94336,-0.39551 0.820306,2e-5 1.534823,0.14976 2.143555,0.44922 0.608715,0.2995 1.1149,0.72755 1.518554,1.28418 0.403636,0.55665 0.704743,1.23536 0.903321,2.03614 0.198557,0.80079 0.297841,1.70248 0.297851,2.70507 z m -1.806641,0.12696 c -8e-6,-0.74869 -0.05697,-1.43391 -0.170898,-2.05567 -0.113941,-0.62173 -0.29786,-1.15721 -0.551758,-1.60644 -0.253914,-0.44921 -0.581062,-0.79752 -0.981445,-1.04492 -0.400397,-0.24739 -0.883795,-0.37109 -1.450195,-0.3711 -0.54688,1e-5 -1.017257,0.13185 -1.411133,0.39551 -0.393884,0.26368 -0.717777,0.62176 -0.97168,1.07422 -0.253909,0.45248 -0.442711,0.98308 -0.566406,1.5918 -0.1237,0.60873 -0.185549,1.25489 -0.185547,1.93847 -2e-6,0.75522 0.05859,1.44369 0.175781,2.06543 0.117185,0.62175 0.301104,1.1556 0.551758,1.60156 0.250648,0.44597 0.574541,0.79265 0.97168,1.04004 0.397131,0.2474 0.875646,0.3711 1.435547,0.3711 0.546869,0 1.018873,-0.13184 1.416015,-0.39551 0.397128,-0.26367 0.724276,-0.62174 0.981446,-1.07422 0.257153,-0.45247 0.447582,-0.98144 0.571289,-1.58691 0.123689,-0.60547 0.185538,-1.25325 0.185546,-1.94336 z"
         id="path3086"
         style="font-size:20px;font-variant:normal;font-stretch:normal;fill:#ff0000;font-family:Consolas;-inkscape-font-specification:Consolas" />
      <path
         d="m 70.976185,442.76831 c -1e-5,0.61199 -0.04721,1.19792 -0.141602,1.75781 -0.09441,0.5599 -0.245778,1.08074 -0.454101,1.5625 -0.208343,0.48178 -0.478525,0.9196 -0.810547,1.31348 -0.33204,0.39388 -0.738941,0.7308 -1.220703,1.01074 -0.481778,0.27995 -1.041674,0.49642 -1.679688,0.64942 -0.638026,0.15299 -1.363937,0.22949 -2.177734,0.22949 l -2.734375,0 0,-12.76367 3.291015,0 c 1.992182,1e-5 3.478183,0.5127 4.458008,1.53808 0.979808,1.0254 1.469717,2.59278 1.469727,4.70215 z m -1.826172,0.12695 c -8e-6,-0.90494 -0.08464,-1.66991 -0.253906,-2.29492 -0.169279,-0.62499 -0.42644,-1.12955 -0.771485,-1.51367 -0.345059,-0.3841 -0.778001,-0.66242 -1.298828,-0.83496 -0.520839,-0.17252 -1.132817,-0.25878 -1.835937,-0.25879 l -1.494141,0 0,9.79492 1.298828,0 c 2.903639,0 4.355461,-1.63085 4.355469,-4.89258 z"
         id="path3088"
         style="font-size:20px;font-variant:normal;font-stretch:normal;fill:#ff0000;font-family:Consolas;-inkscape-font-specification:Consolas" />
      <path
         d="m 80.927357,449.29175 -7.25586,0 0,-12.76367 7.25586,0 0,1.46484 -5.517578,0 0,3.95508 5.302734,0 0,1.46484 -5.302734,0 0,4.39453 5.517578,0 z"
         id="path3090"
         style="font-size:20px;font-variant:normal;font-stretch:normal;fill:#ff0000;font-family:Consolas;-inkscape-font-specification:Consolas" />
      <path
         d="m 92.343372,449.29175 -7.34375,0 0,-12.76367 1.767578,0 0,11.27929 5.576172,0 z"
         id="path3092"
         style="font-size:20px;font-variant:normal;font-stretch:normal;fill:#ff0000;font-family:Consolas;-inkscape-font-specification:Consolas" />
      <path
         d="m 114.49181,445.83472 c -1e-5,0.60547 -0.12371,1.13607 -0.37109,1.59179 -0.24741,0.45573 -0.59246,0.83497 -1.03516,1.1377 -0.44272,0.30273 -0.97494,0.52897 -1.59668,0.67871 -0.62175,0.14974 -1.30697,0.22461 -2.05566,0.22461 -0.33855,0 -0.67546,-0.013 -1.01075,-0.0391 -0.33529,-0.026 -0.65755,-0.0586 -0.96679,-0.0977 -0.30925,-0.0391 -0.60059,-0.0846 -0.87403,-0.13672 -0.27344,-0.0521 -0.52083,-0.10742 -0.74218,-0.16601 l 0,-1.67969 c 0.48828,0.18229 1.03678,0.32552 1.6455,0.42969 0.60872,0.10416 1.30046,0.15625 2.0752,0.15625 0.55989,0 1.03678,-0.0439 1.43066,-0.13184 0.39388,-0.0879 0.71614,-0.2181 0.9668,-0.39062 0.25064,-0.17253 0.43294,-0.38249 0.54688,-0.62989 0.11392,-0.24739 0.17089,-0.53059 0.17089,-0.84961 0,-0.34505 -0.096,-0.63964 -0.28808,-0.88379 -0.19207,-0.24413 -0.44435,-0.46223 -0.75684,-0.65429 -0.3125,-0.19206 -0.66895,-0.36784 -1.06933,-0.52735 -0.4004,-0.1595 -0.80893,-0.32388 -1.22559,-0.49316 -0.41667,-0.16927 -0.8252,-0.35318 -1.22559,-0.55176 -0.40039,-0.19856 -0.75683,-0.43293 -1.06933,-0.70312 -0.3125,-0.27018 -0.56478,-0.58756 -0.75684,-0.95215 -0.19206,-0.36458 -0.28809,-0.79752 -0.28808,-1.29883 -1e-5,-0.43619 0.0911,-0.86588 0.27343,-1.28906 0.18229,-0.42317 0.4655,-0.79914 0.84961,-1.12793 0.38411,-0.32877 0.87728,-0.59407 1.4795,-0.7959 0.6022,-0.20181 1.31998,-0.30272 2.15332,-0.30274 0.21483,2e-5 0.44758,0.01 0.69824,0.0293 0.25064,0.0195 0.50455,0.0472 0.76172,0.083 0.25715,0.0358 0.51106,0.0765 0.76172,0.12207 0.25064,0.0456 0.48338,0.0944 0.69824,0.14648 l 0,1.5625 c -0.50131,-0.14321 -1.00261,-0.25226 -1.50391,-0.32714 -0.50131,-0.0749 -0.98633,-0.1123 -1.45508,-0.11231 -0.9961,10e-6 -1.72852,0.16603 -2.19726,0.49805 -0.46876,0.33204 -0.70313,0.778 -0.70313,1.33789 0,0.34506 0.096,0.64128 0.28809,0.88867 0.19205,0.2474 0.44433,0.46876 0.75683,0.66406 0.3125,0.19532 0.66894,0.37273 1.06934,0.53223 0.40039,0.15951 0.80891,0.3239 1.22559,0.49316 0.41666,0.16928 0.82518,0.35483 1.22558,0.55664 0.40038,0.20183 0.75683,0.44109 1.06934,0.71778 0.31249,0.2767 0.56477,0.60059 0.75683,0.97168 0.19205,0.3711 0.28808,0.81055 0.28809,1.31836 z"
         id="path3094"
         style="font-size:20px;font-variant:normal;font-stretch:normal;fill:#ff0000;font-family:Consolas;-inkscape-font-specification:Consolas" />
      <path
         d="m 125.234,449.15503 c -0.38413,0.0977 -0.78126,0.16764 -1.19141,0.20996 -0.41016,0.0423 -0.82683,0.0635 -1.25,0.0635 -1.23047,0 -2.14844,-0.27832 -2.75391,-0.83496 -0.60547,-0.55664 -0.9082,-1.41113 -0.9082,-2.56348 l 0,-5.11719 -2.74414,0 0,-1.42578 2.74414,0 0,-2.69531 1.69922,-0.43946 0,3.13477 4.4043,0 0,1.42578 -4.4043,0 0,4.98047 c 0,0.70313 0.18717,1.22884 0.56152,1.57715 0.37435,0.34831 0.9261,0.52246 1.65528,0.52246 0.31249,0 0.65429,-0.0244 1.02539,-0.0732 0.37108,-0.0488 0.75845,-0.12533 1.16211,-0.22949 z"
         id="path3096"
         style="font-size:20px;font-variant:normal;font-stretch:normal;fill:#ff0000;font-family:Consolas;-inkscape-font-specification:Consolas" />
      <path
         d="m 134.64806,449.29175 -0.0391,-1.31836 c -0.53386,0.52734 -1.07586,0.9082 -1.62598,1.14258 -0.55014,0.23437 -1.12793,0.35156 -1.7334,0.35156 -0.5599,0 -1.03841,-0.0716 -1.43554,-0.21484 -0.39714,-0.14323 -0.72429,-0.34017 -0.98145,-0.59082 -0.25716,-0.25065 -0.44596,-0.54525 -0.56641,-0.88379 -0.12044,-0.33854 -0.18066,-0.70638 -0.18066,-1.10352 0,-0.98307 0.36621,-1.75292 1.09863,-2.30957 0.73242,-0.55663 1.81478,-0.83495 3.24707,-0.83496 l 2.03125,0 0,-0.85938 c 0,-0.57942 -0.18555,-1.04328 -0.55664,-1.3916 -0.3711,-0.3483 -0.9375,-0.52245 -1.69922,-0.52246 -0.55339,10e-6 -1.09863,0.0619 -1.63574,0.18555 -0.53711,0.1237 -1.09212,0.29949 -1.66504,0.52734 l 0,-1.5332 c 0.21484,-0.0781 0.4541,-0.15461 0.71778,-0.22949 0.26366,-0.0749 0.54198,-0.14159 0.83496,-0.2002 0.29296,-0.0586 0.59895,-0.10578 0.91797,-0.1416 0.319,-0.0358 0.64127,-0.0537 0.96679,-0.0537 0.59244,1e-5 1.1263,0.0651 1.60156,0.19531 0.47526,0.13022 0.87728,0.32879 1.20606,0.5957 0.32877,0.26694 0.58105,0.60223 0.75684,1.00586 0.17577,0.40366 0.26366,0.87892 0.26367,1.42579 l 0,6.75781 z m -0.18555,-4.46289 -2.1582,0 c -0.42318,0 -0.78777,0.0423 -1.09375,0.12695 -0.30599,0.0846 -0.55664,0.20508 -0.75195,0.36133 -0.19532,0.15625 -0.34018,0.34343 -0.43457,0.56152 -0.0944,0.2181 -0.14161,0.46387 -0.14161,0.73731 0,0.1888 0.0293,0.36947 0.0879,0.54199 0.0586,0.17253 0.15299,0.32552 0.2832,0.45898 0.1302,0.13347 0.29947,0.23926 0.50781,0.31739 0.20833,0.0781 0.46224,0.11718 0.76172,0.11718 0.39062,0 0.83821,-0.11881 1.34277,-0.35644 0.50455,-0.23763 1.03678,-0.61361 1.59668,-1.12793 z"
         id="path3098"
         style="font-size:20px;font-variant:normal;font-stretch:normal;fill:#ff0000;font-family:Consolas;-inkscape-font-specification:Consolas" />
      <path
         d="m 139.36486,439.48706 1.51367,0 0.0684,1.58203 c 0.28645,-0.33853 0.56315,-0.62011 0.83008,-0.84472 0.26692,-0.2246 0.52896,-0.40527 0.78613,-0.542 0.25716,-0.13671 0.5192,-0.23273 0.78613,-0.28808 0.26692,-0.0553 0.54362,-0.083 0.83008,-0.083 1.00911,1e-5 1.77245,0.29786 2.29004,0.89355 0.51757,0.59572 0.77636,1.49252 0.77637,2.69043 l 0,6.39649 -1.69922,0 0,-6.25977 c -1e-5,-0.76822 -0.14324,-1.33625 -0.42969,-1.7041 -0.28647,-0.36783 -0.7129,-0.55175 -1.2793,-0.55176 -0.20834,10e-6 -0.41179,0.0309 -0.61035,0.0928 -0.19857,0.0618 -0.40528,0.16928 -0.62012,0.32226 -0.21484,0.153 -0.44759,0.35971 -0.69824,0.62012 -0.25065,0.26042 -0.53223,0.58594 -0.84472,0.97656 l 0,6.50391 -1.69922,0 z"
         id="path3100"
         style="font-size:20px;font-variant:normal;font-stretch:normal;fill:#ff0000;font-family:Consolas;-inkscape-font-specification:Consolas" />
      <path
         d="m 149.88243,444.59448 c 0,-0.83333 0.11394,-1.57388 0.3418,-2.22168 0.22786,-0.64778 0.55176,-1.19465 0.97168,-1.64062 0.41992,-0.44596 0.92448,-0.7845 1.51367,-1.01563 0.58919,-0.23111 1.24512,-0.34667 1.96778,-0.34668 0.31249,1e-5 0.62011,0.0195 0.92285,0.0586 0.30273,0.0391 0.60058,0.10092 0.89355,0.18554 l 0,-4.12109 1.70899,0 0,13.79883 -1.52344,0 -0.0586,-1.85547 c -0.47527,0.6901 -0.98959,1.20117 -1.54297,1.5332 -0.55339,0.33203 -1.15235,0.49805 -1.79688,0.49805 -0.5599,0 -1.05306,-0.11719 -1.47949,-0.35156 -0.42643,-0.23438 -0.78125,-0.56478 -1.06445,-0.99121 -0.28321,-0.42643 -0.49642,-0.93913 -0.63965,-1.53809 -0.14323,-0.59896 -0.21485,-1.26302 -0.21485,-1.99219 z m 1.73829,-0.10742 c -1e-5,1.1849 0.17415,2.06869 0.52246,2.65137 0.3483,0.58268 0.84146,0.87402 1.47949,0.87402 0.42968,0 0.88378,-0.19205 1.3623,-0.57617 0.47851,-0.38411 0.98144,-0.95377 1.50879,-1.70899 l 0,-4.55078 c -0.27995,-0.1302 -0.5892,-0.22948 -0.92773,-0.29785 -0.33855,-0.0684 -0.67384,-0.10253 -1.00586,-0.10254 -0.92448,1e-5 -1.64551,0.29949 -2.16309,0.89844 -0.51758,0.59897 -0.77637,1.53646 -0.77636,2.8125 z"
         id="path3102"
         style="font-size:20px;font-variant:normal;font-stretch:normal;fill:#ff0000;font-family:Consolas;-inkscape-font-specification:Consolas" />
      <path
         d="m 167.69493,449.29175 -0.0391,-1.31836 c -0.53386,0.52734 -1.07585,0.9082 -1.62597,1.14258 -0.55014,0.23437 -1.12794,0.35156 -1.7334,0.35156 -0.5599,0 -1.03842,-0.0716 -1.43555,-0.21484 -0.39714,-0.14323 -0.72429,-0.34017 -0.98144,-0.59082 -0.25717,-0.25065 -0.44597,-0.54525 -0.56641,-0.88379 -0.12045,-0.33854 -0.18067,-0.70638 -0.18067,-1.10352 0,-0.98307 0.36621,-1.75292 1.09864,-2.30957 0.73242,-0.55663 1.81477,-0.83495 3.24707,-0.83496 l 2.03125,0 0,-0.85938 c -1e-5,-0.57942 -0.18556,-1.04328 -0.55664,-1.3916 -0.3711,-0.3483 -0.93751,-0.52245 -1.69922,-0.52246 -0.55339,10e-6 -1.09864,0.0619 -1.63574,0.18555 -0.53712,0.1237 -1.09213,0.29949 -1.66504,0.52734 l 0,-1.5332 c 0.21484,-0.0781 0.4541,-0.15461 0.71777,-0.22949 0.26367,-0.0749 0.54199,-0.14159 0.83496,-0.2002 0.29297,-0.0586 0.59896,-0.10578 0.91797,-0.1416 0.31901,-0.0358 0.64127,-0.0537 0.9668,-0.0537 0.59244,1e-5 1.12629,0.0651 1.60156,0.19531 0.47525,0.13022 0.87727,0.32879 1.20605,0.5957 0.32877,0.26694 0.58105,0.60223 0.75684,1.00586 0.17577,0.40366 0.26366,0.87892 0.26367,1.42579 l 0,6.75781 z m -0.18554,-4.46289 -2.15821,0 c -0.42318,0 -0.78776,0.0423 -1.09375,0.12695 -0.30599,0.0846 -0.55664,0.20508 -0.75195,0.36133 -0.19531,0.15625 -0.34017,0.34343 -0.43457,0.56152 -0.0944,0.2181 -0.1416,0.46387 -0.1416,0.73731 0,0.1888 0.0293,0.36947 0.0879,0.54199 0.0586,0.17253 0.15299,0.32552 0.2832,0.45898 0.13021,0.13347 0.29948,0.23926 0.50782,0.31739 0.20833,0.0781 0.46223,0.11718 0.76171,0.11718 0.39062,0 0.83822,-0.11881 1.34278,-0.35644 0.50455,-0.23763 1.03678,-0.61361 1.59668,-1.12793 z"
         id="path3104"
         style="font-size:20px;font-variant:normal;font-stretch:normal;fill:#ff0000;font-family:Consolas;-inkscape-font-specification:Consolas" />
      <path
         d="m 172.81212,439.48706 1.55274,0 0.0488,1.80664 c 0.57943,-0.6966 1.15072,-1.20116 1.71387,-1.51367 0.56315,-0.31249 1.13118,-0.46874 1.7041,-0.46875 1.01562,10e-6 1.78548,0.32878 2.30957,0.98633 0.52408,0.65756 0.7666,1.63412 0.72754,2.92968 l -1.71875,0 c 0.0195,-0.85936 -0.1058,-1.48273 -0.37597,-1.87011 -0.27019,-0.38736 -0.6657,-0.58105 -1.18653,-0.58106 -0.22787,1e-5 -0.45736,0.0407 -0.68847,0.12207 -0.23113,0.0814 -0.46876,0.2116 -0.71289,0.39063 -0.24415,0.17904 -0.50294,0.40853 -0.77637,0.68847 -0.27344,0.27996 -0.56641,0.6185 -0.87891,1.01563 l 0,6.29883 -1.71875,0 z"
         id="path3106"
         style="font-size:20px;font-variant:normal;font-stretch:normal;fill:#ff0000;font-family:Consolas;-inkscape-font-specification:Consolas" />
      <path
         d="m 182.92931,444.59448 c 0,-0.83333 0.11393,-1.57388 0.3418,-2.22168 0.22786,-0.64778 0.55175,-1.19465 0.97168,-1.64062 0.41992,-0.44596 0.92447,-0.7845 1.51367,-1.01563 0.58919,-0.23111 1.24511,-0.34667 1.96777,-0.34668 0.3125,1e-5 0.62011,0.0195 0.92285,0.0586 0.30273,0.0391 0.60058,0.10092 0.89356,0.18554 l 0,-4.12109 1.70898,0 0,13.79883 -1.52344,0 -0.0586,-1.85547 c -0.47527,0.6901 -0.98959,1.20117 -1.54297,1.5332 -0.55339,0.33203 -1.15235,0.49805 -1.79687,0.49805 -0.5599,0 -1.05307,-0.11719 -1.47949,-0.35156 -0.42644,-0.23438 -0.78126,-0.56478 -1.06446,-0.99121 -0.2832,-0.42643 -0.49642,-0.93913 -0.63965,-1.53809 -0.14323,-0.59896 -0.21484,-1.26302 -0.21484,-1.99219 z m 1.73828,-0.10742 c 0,1.1849 0.17415,2.06869 0.52246,2.65137 0.34831,0.58268 0.84147,0.87402 1.47949,0.87402 0.42969,0 0.88379,-0.19205 1.36231,-0.57617 0.47851,-0.38411 0.98144,-0.95377 1.50879,-1.70899 l 0,-4.55078 c -0.27996,-0.1302 -0.5892,-0.22948 -0.92774,-0.29785 -0.33854,-0.0684 -0.67383,-0.10253 -1.00586,-0.10254 -0.92448,1e-5 -1.64551,0.29949 -2.16308,0.89844 -0.51758,0.59897 -0.77637,1.53646 -0.77637,2.8125 z"
         id="path3108"
         style="font-size:20px;font-variant:normal;font-stretch:normal;fill:#ff0000;font-family:Consolas;-inkscape-font-specification:Consolas" />
      <path
         d="m 48.39806,465.83472 c -1e-5,0.60547 -0.123708,1.13607 -0.371094,1.59179 -0.247405,0.45573 -0.592457,0.83497 -1.035156,1.1377 -0.442716,0.30273 -0.974942,0.52897 -1.59668,0.67871 -0.621751,0.14974 -1.306971,0.22461 -2.055664,0.22461 -0.338546,0 -0.67546,-0.013 -1.010742,-0.0391 -0.33529,-0.026 -0.657555,-0.0586 -0.966797,-0.0977 -0.309247,-0.0391 -0.600588,-0.0846 -0.874023,-0.13672 -0.273439,-0.0521 -0.520835,-0.10742 -0.742188,-0.16601 l 0,-1.67969 c 0.48828,0.18229 1.036782,0.32552 1.645508,0.42969 0.608721,0.10416 1.300452,0.15625 2.075195,0.15625 0.559891,0 1.036778,-0.0439 1.430664,-0.13184 0.393874,-0.0879 0.716139,-0.2181 0.966797,-0.39062 0.250644,-0.17253 0.432935,-0.38249 0.546875,-0.62989 0.113925,-0.24739 0.170891,-0.53059 0.170899,-0.84961 -8e-6,-0.34505 -0.09604,-0.63964 -0.288086,-0.88379 -0.192065,-0.24413 -0.444343,-0.46223 -0.756836,-0.65429 -0.312507,-0.19206 -0.668952,-0.36784 -1.069336,-0.52735 -0.400396,-0.1595 -0.808924,-0.32388 -1.225586,-0.49316 -0.416671,-0.16927 -0.825199,-0.35318 -1.225586,-0.55176 -0.400394,-0.19856 -0.756839,-0.43293 -1.069336,-0.70312 -0.312502,-0.27018 -0.56478,-0.58756 -0.756836,-0.95215 -0.192059,-0.36458 -0.288087,-0.79752 -0.288086,-1.29883 -1e-6,-0.43619 0.09114,-0.86588 0.273438,-1.28906 0.18229,-0.42317 0.465492,-0.79914 0.849609,-1.12793 0.384112,-0.32877 0.877275,-0.59407 1.479492,-0.7959 0.602209,-0.20181 1.319982,-0.30272 2.15332,-0.30274 0.214838,2e-5 0.447585,0.01 0.698243,0.0293 0.250644,0.0195 0.50455,0.0472 0.761718,0.083 0.257154,0.0358 0.51106,0.0765 0.761719,0.12207 0.250643,0.0456 0.48339,0.0944 0.698242,0.14648 l 0,1.5625 c -0.50131,-0.14321 -1.002612,-0.25226 -1.503906,-0.32714 -0.501309,-0.0749 -0.986334,-0.1123 -1.455078,-0.11231 -0.996099,10e-6 -1.72852,0.16603 -2.197266,0.49805 -0.468753,0.33204 -0.703128,0.778 -0.703125,1.33789 -3e-6,0.34506 0.09603,0.64128 0.288086,0.88867 0.192054,0.2474 0.444332,0.46876 0.756836,0.66406 0.312496,0.19532 0.668941,0.37273 1.069336,0.53223 0.400385,0.15951 0.808913,0.3239 1.225586,0.49316 0.41666,0.16928 0.825188,0.35483 1.225586,0.55664 0.400383,0.20183 0.756828,0.44109 1.069336,0.71778 0.312491,0.2767 0.564769,0.60059 0.756836,0.97168 0.192048,0.3711 0.288076,0.81055 0.288086,1.31836 z"
         id="path3110"
         style="font-size:20px;font-variant:normal;font-stretch:normal;fill:#ff0000;font-family:Consolas;-inkscape-font-specification:Consolas" />
      <path
         d="m 59.120716,455.49292 -6.699219,15.89844 -1.621093,0 6.699218,-15.89844 z"
         id="path3112"
         style="font-size:20px;font-variant:normal;font-stretch:normal;fill:#ff0000;font-family:Consolas;-inkscape-font-specification:Consolas" />
      <path
         d="m 70.536732,469.29175 -2.265625,0 -3.720703,-7.95899 -1.074219,-2.55859 0,6.43555 0,4.08203 -1.621094,0 0,-12.76367 2.236328,0 3.544922,7.53906 1.279297,2.91992 0,-6.83594 0,-3.62304 1.621094,0 z"
         id="path3114"
         style="font-size:20px;font-variant:normal;font-stretch:normal;fill:#ff0000;font-family:Consolas;-inkscape-font-specification:Consolas" />
      <path
         d="m 114.59923,469.29175 -8.4082,0 0,-1.52344 3.30078,-3.28125 c 0.54036,-0.53385 0.97981,-0.99609 1.31836,-1.38672 0.33853,-0.39062 0.60221,-0.74706 0.79101,-1.06933 0.1888,-0.32226 0.31575,-0.62662 0.38086,-0.91309 0.0651,-0.28645 0.0977,-0.59569 0.0977,-0.92773 -1e-5,-0.3125 -0.0423,-0.61035 -0.12695,-0.89356 -0.0846,-0.28319 -0.21485,-0.53222 -0.39063,-0.74707 -0.17579,-0.21483 -0.40365,-0.3841 -0.68359,-0.50781 -0.27996,-0.12369 -0.61524,-0.18554 -1.00586,-0.18555 -0.54037,10e-6 -1.03191,0.12046 -1.47461,0.36133 -0.44271,0.2409 -0.84961,0.5534 -1.2207,0.9375 l -0.9375,-1.12305 c 0.48177,-0.5078 1.03678,-0.9147 1.66504,-1.2207 0.62825,-0.30598 1.35904,-0.45897 2.19238,-0.45899 0.5664,2e-5 1.08235,0.0847 1.54785,0.25391 0.46549,0.16928 0.86751,0.41342 1.20605,0.73242 0.33854,0.31903 0.60058,0.70965 0.78614,1.17188 0.18554,0.46225 0.27831,0.98308 0.27832,1.5625 -10e-6,0.48829 -0.0651,0.94076 -0.19531,1.35742 -0.13022,0.41667 -0.32716,0.83171 -0.59082,1.24512 -0.26368,0.41341 -0.59572,0.84147 -0.9961,1.28418 -0.4004,0.44271 -0.87403,0.92774 -1.4209,1.45507 l -2.31445,2.25586 6.20117,0 z"
         id="path3116"
         style="font-size:20px;font-variant:normal;font-stretch:normal;fill:#ff0000;font-family:Consolas;-inkscape-font-specification:Consolas" />
      <path
         d="m 48.944935,482.76831 c -1e-5,0.61199 -0.04721,1.19792 -0.141602,1.75781 -0.09441,0.5599 -0.245778,1.08074 -0.454101,1.5625 -0.208343,0.48178 -0.478525,0.9196 -0.810547,1.31348 -0.33204,0.39388 -0.738941,0.7308 -1.220703,1.01074 -0.481778,0.27995 -1.041674,0.49642 -1.679688,0.64942 -0.638026,0.15299 -1.363937,0.22949 -2.177734,0.22949 l -2.734375,0 0,-12.76367 3.291015,0 c 1.992182,1e-5 3.478183,0.5127 4.458008,1.53808 0.979808,1.0254 1.469717,2.59278 1.469727,4.70215 z m -1.826172,0.12695 c -8e-6,-0.90494 -0.08464,-1.66991 -0.253906,-2.29492 -0.169279,-0.62499 -0.42644,-1.12955 -0.771485,-1.51367 -0.345059,-0.3841 -0.778001,-0.66242 -1.298828,-0.83496 -0.520839,-0.17252 -1.132817,-0.25878 -1.835937,-0.25879 l -1.494141,0 0,9.79492 1.298828,0 c 2.903639,0 4.355461,-1.63085 4.355469,-4.89258 z"
         id="path3118"
         style="font-size:20px;font-variant:normal;font-stretch:normal;fill:#ff0000;font-family:Consolas;-inkscape-font-specification:Consolas" />
      <path
         d="m 60.575794,489.29175 -1.894531,0 -0.888672,-2.78321 -5.3125,0 -0.898437,2.78321 -1.806641,0 4.238281,-12.76367 2.382813,0 z m -3.28125,-4.33594 -2.158203,-6.82617 -2.158203,6.82617 z"
         id="path3120"
         style="font-size:20px;font-variant:normal;font-stretch:normal;fill:#ff0000;font-family:Consolas;-inkscape-font-specification:Consolas" />
      <path
         d="m 70.849232,478.01245 -3.779297,0 0,11.2793 -1.757813,0 0,-11.2793 -3.779297,0 0,-1.48437 9.316407,0 z"
         id="path3122"
         style="font-size:20px;font-variant:normal;font-stretch:normal;fill:#ff0000;font-family:Consolas;-inkscape-font-specification:Consolas" />
      <path
         d="m 80.927357,489.29175 -7.25586,0 0,-12.76367 7.25586,0 0,1.46484 -5.517578,0 0,3.95508 5.302734,0 0,1.46484 -5.302734,0 0,4.39453 5.517578,0 z"
         id="path3124"
         style="font-size:20px;font-variant:normal;font-stretch:normal;fill:#ff0000;font-family:Consolas;-inkscape-font-specification:Consolas" />
      <path
         d="m 114.49181,489.29175 -8.01758,0 0,-1.58203 3.28125,0 0,-9.31641 -3.05664,1.66016 -0.625,-1.44532 4.0625,-2.13867 1.50391,0 0,11.24024 2.85156,0 z"
         id="path3126"
         style="font-size:20px;font-variant:normal;font-stretch:normal;fill:#ff0000;font-family:Consolas;-inkscape-font-specification:Consolas" />
      <path
         d="m 125.29259,485.20972 c -1e-5,0.63151 -0.13673,1.20768 -0.41016,1.72851 -0.27344,0.52084 -0.64942,0.96843 -1.12792,1.34278 -0.47853,0.37435 -1.04331,0.66569 -1.69434,0.87402 -0.65105,0.20833 -1.35417,0.3125 -2.10938,0.3125 -0.1888,0 -0.39225,-0.005 -0.61035,-0.0147 -0.2181,-0.01 -0.43457,-0.0228 -0.64941,-0.0391 -0.21485,-0.0163 -0.42481,-0.0342 -0.62988,-0.0537 -0.20508,-0.0195 -0.389,-0.0423 -0.55176,-0.0684 l 0,-1.54297 c 0.35156,0.0846 0.75358,0.14649 1.20605,0.18555 0.45247,0.0391 0.90983,0.0586 1.37207,0.0586 0.52083,0 0.98958,-0.0619 1.40625,-0.18555 0.41666,-0.12369 0.77148,-0.3011 1.06446,-0.53222 0.29296,-0.23112 0.51757,-0.51107 0.67382,-0.83985 0.15625,-0.32877 0.23437,-0.69824 0.23438,-1.1084 -1e-5,-0.79426 -0.28484,-1.37206 -0.85449,-1.73339 -0.56967,-0.36133 -1.38835,-0.54199 -2.45606,-0.542 l -2.42187,0 0,-6.52343 6.875,0 0,1.48437 -5.27344,0 0,3.58399 1.11328,0 c 0.61197,0 1.20768,0.0553 1.78711,0.16601 0.57942,0.11069 1.09537,0.30437 1.54785,0.58106 0.45247,0.2767 0.81705,0.64779 1.09375,1.11328 0.27669,0.4655 0.41503,1.04981 0.41504,1.75293 z"
         id="path3128"
         style="font-size:20px;font-variant:normal;font-stretch:normal;fill:#ff0000;font-family:Consolas;-inkscape-font-specification:Consolas" />
      <path
         d="m 135.2047,484.77026 -5.83984,0 0,-1.60156 5.83984,0 z"
         id="path3130"
         style="font-size:20px;font-variant:normal;font-stretch:normal;fill:#ff0000;font-family:Consolas;-inkscape-font-specification:Consolas" />
      <path
         d="m 147.64611,489.29175 -8.40821,0 0,-1.52344 3.30078,-3.28125 c 0.54036,-0.53385 0.97982,-0.99609 1.31836,-1.38672 0.33854,-0.39062 0.60221,-0.74706 0.79102,-1.06933 0.18879,-0.32226 0.31575,-0.62662 0.38086,-0.91309 0.0651,-0.28645 0.0976,-0.59569 0.0977,-0.92773 -1e-5,-0.3125 -0.0423,-0.61035 -0.12696,-0.89356 -0.0846,-0.28319 -0.21485,-0.53222 -0.39062,-0.74707 -0.17579,-0.21483 -0.40365,-0.3841 -0.6836,-0.50781 -0.27995,-0.12369 -0.61524,-0.18554 -1.00586,-0.18555 -0.54036,10e-6 -1.0319,0.12046 -1.47461,0.36133 -0.44271,0.2409 -0.84961,0.5534 -1.2207,0.9375 l -0.9375,-1.12305 c 0.48177,-0.5078 1.03678,-0.9147 1.66504,-1.2207 0.62825,-0.30598 1.35905,-0.45897 2.19238,-0.45899 0.5664,2e-5 1.08235,0.0847 1.54786,0.25391 0.46548,0.16928 0.8675,0.41342 1.20605,0.73242 0.33853,0.31903 0.60058,0.70965 0.78613,1.17188 0.18554,0.46225 0.27831,0.98308 0.27832,1.5625 -1e-5,0.48829 -0.0651,0.94076 -0.19531,1.35742 -0.13022,0.41667 -0.32716,0.83171 -0.59082,1.24512 -0.26368,0.41341 -0.59571,0.84147 -0.99609,1.28418 -0.4004,0.44271 -0.87403,0.92774 -1.4209,1.45507 l -2.31446,2.25586 6.20118,0 z"
         id="path3132"
         style="font-size:20px;font-variant:normal;font-stretch:normal;fill:#ff0000;font-family:Consolas;-inkscape-font-specification:Consolas" />
      <path
         d="m 158.33947,485.20972 c -1e-5,0.63151 -0.13673,1.20768 -0.41016,1.72851 -0.27345,0.52084 -0.64942,0.96843 -1.12793,1.34278 -0.47852,0.37435 -1.0433,0.66569 -1.69434,0.87402 -0.65104,0.20833 -1.35417,0.3125 -2.10937,0.3125 -0.18881,0 -0.39226,-0.005 -0.61035,-0.0147 -0.2181,-0.01 -0.43458,-0.0228 -0.64942,-0.0391 -0.21484,-0.0163 -0.4248,-0.0342 -0.62988,-0.0537 -0.20508,-0.0195 -0.389,-0.0423 -0.55176,-0.0684 l 0,-1.54297 c 0.35156,0.0846 0.75358,0.14649 1.20606,0.18555 0.45247,0.0391 0.90982,0.0586 1.37207,0.0586 0.52083,0 0.98958,-0.0619 1.40625,-0.18555 0.41666,-0.12369 0.77148,-0.3011 1.06445,-0.53222 0.29296,-0.23112 0.51757,-0.51107 0.67383,-0.83985 0.15624,-0.32877 0.23437,-0.69824 0.23437,-1.1084 0,-0.79426 -0.28483,-1.37206 -0.85449,-1.73339 -0.56967,-0.36133 -1.38835,-0.54199 -2.45605,-0.542 l -2.42188,0 0,-6.52343 6.875,0 0,1.48437 -5.27344,0 0,3.58399 1.11329,0 c 0.61197,0 1.20767,0.0553 1.78711,0.16601 0.57942,0.11069 1.09537,0.30437 1.54785,0.58106 0.45246,0.2767 0.81705,0.64779 1.09375,1.11328 0.27668,0.4655 0.41503,1.04981 0.41504,1.75293 z"
         id="path3134"
         style="font-size:20px;font-variant:normal;font-stretch:normal;fill:#ff0000;font-family:Consolas;-inkscape-font-specification:Consolas" />
    </g>
    <path
       d="m 387.57062,346.64525 c -3.05451,-0.0199 -6.10932,1.73939 -8.24981,5.22052 l -74.95564,125.4617 c -3.58988,6.00814 -1.02399,12.14514 5.07444,12.14022 l 156.02367,-0.10764 0,-0.008 c 7.31458,0.1058 10.35186,-6.16898 6.18159,-12.14021 L 395.82043,352.10413 c -2.14049,-3.63651 -5.19531,-5.43898 -8.24981,-5.45888 z m 0.0692,23.5577 38.74259,63.87645 21.99693,37.83534 -75.64761,0.64583 -44.34753,-0.43824 36.90502,-64.50691 22.3506,-37.41247 z"
       id="path634"
       style="fill:#ff0000;stroke:none" />
    <path
       d="m 383.15555,393.33994 -18.89046,46.20509 26.44614,-9.00728 -9.30006,34.58246 19.76141,-42.42847 -28.18806,8.71697 20.34205,-38.35909 -10.17102,0.29032 z"
       id="path615"
       style="fill:#ff0000;fill-rule:evenodd" />
    <path
       d="m 379.37647,452.33139 2.32502,14.24042 10.17102,-11.9154 -7.26537,1.74438 -5.23067,-4.0694 z"
       id="path617"
       style="fill:#ff0000;fill-rule:evenodd" />
  </g>
</svg>
